[Header]
FileType HTR
DataType HTRS
FileVersion 1
NumSegments 48
NumFrames 3
DataFrameRate 30
EulerRotationOrder ZYX
CalibrationUnits mm
RotationUnits Degrees
GlobalAxisofGravity Y
BoneLengthAxis Y
ScaleFactor 1.0
[SegmentNames&Hierarchy]
Wolf	GLOBAL
Becken	Wolf
Bauch	Becken
Bauch_001	Bauch
Brust	Bauch_001
Hals	Brust
Kopf_002	Hals
Kopf	Kopf_002
Unterkiefer	Kopf
Hals_fett	Unterkiefer
Maulunten	Unterkiefer
Mauloben	Kopf
MundW_L	Kopf
MundW_R	Kopf
Augen_con	Kopf
IK_Aug_R	Augen_con
IK_Aug_L	Augen_con
Aug_R	Kopf
aug_L	Kopf
Ohr_L	Kopf
Ohr_R	Kopf
Braun_O_L	Kopf
Braun_O_R	Kopf
aug_lied_O_L	Kopf
aug_lied_O_R	Kopf
aug_lied_U_L	Kopf
aug_lied_U_R	Kopf
Bauch_003	Brust
Schalterplatte_L	Bauch_003
Oberarm_L	Schalterplatte_L
Unterarm_L	Oberarm_L
Vorderpfote_L	Unterarm_L
Schalterplatte_R	Bauch_003
Oberarm_R	Schalterplatte_R
Unterarm_R	Oberarm_R
Vorderpfote_R	Unterarm_R
Schwanz	Becken
Schwanz_001	Schwanz
Schwanz_002	Schwanz_001
Schwanz_003	Schwanz_002
Oberschenkel_L	Becken
Unterschenkel_L	Oberschenkel_L
Pfote1_L	Unterschenkel_L
Pfote2_L	Pfote1_L
Oberschenkel_R	Becken
Unterschenkel_R	Oberschenkel_R
Pfote1_R	Unterschenkel_R
Pfote2_R	Pfote1_R
[BasePosition]
Wolf	0	0	0	0	0	0	1
Becken	0	0	0	0	0	0	1
Bauch	0	0	0	0	0	0	1
Bauch_001	0	0	0	0	0	0	1
Brust	0	0	0	0	0	0	1
Hals	0	0	0	0	0	0	1
Kopf_002	0	0	0	0	0	0	1
Kopf	0	0	0	0	0	0	1
Unterkiefer	0	0	0	0	0	0	1
Hals_fett	0	0	0	0	0	0	1
Maulunten	0	0	0	0	0	0	1
Mauloben	0	0	0	0	0	0	1
MundW_L	0	0	0	0	0	0	1
MundW_R	0	0	0	0	0	0	1
Augen_con	0	0	0	0	0	0	1
IK_Aug_R	0	0	0	0	0	0	1
IK_Aug_L	0	0	0	0	0	0	1
Aug_R	0	0	0	0	0	0	1
aug_L	0	0	0	0	0	0	1
Ohr_L	0	0	0	0	0	0	1
Ohr_R	0	0	0	0	0	0	1
Braun_O_L	0	0	0	0	0	0	1
Braun_O_R	0	0	0	0	0	0	1
aug_lied_O_L	0	0	0	0	0	0	1
aug_lied_O_R	0	0	0	0	0	0	1
aug_lied_U_L	0	0	0	0	0	0	1
aug_lied_U_R	0	0	0	0	0	0	1
Bauch_003	0	0	0	0	0	0	1
Schalterplatte_L	0	0	0	0	0	0	1
Oberarm_L	0	0	0	0	0	0	1
Unterarm_L	0	0	0	0	0	0	1
Vorderpfote_L	0	0	0	0	0	0	1
Schalterplatte_R	0	0	0	0	0	0	1
Oberarm_R	0	0	0	0	0	0	1
Unterarm_R	0	0	0	0	0	0	1
Vorderpfote_R	0	0	0	0	0	0	1
Schwanz	0	0	0	0	0	0	1
Schwanz_001	0	0	0	0	0	0	1
Schwanz_002	0	0	0	0	0	0	1
Schwanz_003	0	0	0	0	0	0	1
Oberschenkel_L	0	0	0	0	0	0	1
Unterschenkel_L	0	0	0	0	0	0	1
Pfote1_L	0	0	0	0	0	0	1
Pfote2_L	0	0	0	0	0	0	1
Oberschenkel_R	0	0	0	0	0	0	1
Unterschenkel_R	0	0	0	0	0	0	1
Pfote1_R	0	0	0	0	0	0	1
Pfote2_R	0	0	0	0	0	0	1
[Wolf]
13	0	0	0	-90	-0	0	1.0
14	0	0	0	-90	-0	0	1.0
15	0	0	0	-90	-0	0	1.0
[Becken]
13	0	0.5621799231	0.5425981283	-0.1307929605	169.3775177	89.95298004	1.0
14	0	0.5621799231	0.5425981283	0.1307985634	169.3775177	90.04702759	1.0
15	0	0.5621799231	0.5393141508	0.3904078603	169.3779144	90.14037323	1.0
[Bauch]
13	0.9404072165	7.335228958e-08	-0.3559131622	-9.70548399e-07	12.60522652	-8.885302805e-08	1.0
14	0.9404072165	7.335228958e-08	-0.3559131622	-9.70548399e-07	12.60522652	-8.885302805e-08	1.0
15	0.9404072165	7.335228958e-08	-0.3559131622	-9.70548399e-07	12.60522652	-8.885302805e-08	1.0
[Bauch_001]
13	1.081897616	8.323696221e-08	1.180524034e-08	-2.503413032e-09	2.360082865	-2.670307531e-08	1.0
14	1.081897616	8.323696221e-08	1.180524034e-08	-2.503413032e-09	2.360082865	-2.670307531e-08	1.0
15	1.081897616	8.323696221e-08	1.180524034e-08	-2.503413032e-09	2.360082865	-2.670307531e-08	1.0
[Brust]
13	1.069831252	8.440110832e-08	3.139576066e-08	5.110827715e-06	15.71843052	-3.549572648e-05	1.0
14	1.069831252	8.440110832e-08	3.139576066e-08	5.110827715e-06	15.71843147	-3.549572648e-05	1.0
15	1.069831252	8.440110832e-08	3.139576066e-08	5.110827715e-06	15.58524323	-3.549572648e-05	1.0
[Hals]
13	1.258022308	9.662471712e-08	0.6079561114	-4.810633527e-06	46.87745667	-2.341890877e-06	1.0
14	1.258022308	9.662471712e-08	0.6079561114	-4.810633527e-06	46.87745667	-2.341890877e-06	1.0
15	1.258022308	9.662471712e-08	0.6079561114	-4.810633527e-06	46.87745667	-2.341890877e-06	1.0
[Kopf_002]
13	1.752595186	3.012712114e-05	0.265181601	0.006653386634	-165.1497192	0.002557684667	1.0
14	1.752595186	3.012712114e-05	0.265181601	0.006653386634	-165.1497192	0.002557684667	1.0
15	1.752595186	3.012712114e-05	0.265181601	0.006653386634	-165.1497192	0.002557684667	1.0
[Kopf]
13	1.015782118	6.868503988e-08	-5.515175872e-08	0.05738553032	113.3166199	-0.03607197106	1.0
14	1.015782118	6.868503988e-08	-5.515175872e-08	0.0573855415	113.3166275	-0.03607196733	1.0
15	1.015782118	6.868503988e-08	-5.515175872e-08	0.05780090019	113.5828094	-0.03569126874	1.0
[Unterkiefer]
13	0.6370447874	0.004552732222	0.4060618579	5.412721634	-68.3888092	-3.093543291	1.0
14	0.6370447874	0.004552732222	0.4060618579	5.412721634	-68.3888092	-3.093543291	1.0
15	0.6370447874	0.004552732222	0.4060618579	5.412721634	-68.3888092	-3.093543291	1.0
[Hals_fett]
13	0.2998305857	0.007747137919	0.1206372604	-5.071650982	-59.35961151	5.585564613	1.0
14	0.2998305857	0.007747137919	0.1206372604	-5.071650982	-59.35961151	5.585564613	1.0
15	0.2998305857	0.007747137919	0.1206372604	-5.071650982	-59.35961151	5.585564613	1.0
[Maulunten]
13	0.0831861794	-0.007747565862	-0.1206544712	-3.322209358	38.97271347	-0.8718761206	1.0
14	0.0831861794	-0.007747565862	-0.1206544712	-3.322209358	38.97271347	-0.8718761206	1.0
15	0.0831861794	-0.007747565862	-0.1206544712	-3.322209358	38.97271347	-0.8718761206	1.0
[Mauloben]
13	0.9101490974	0.0004056713078	0.4003697634	-0.1032672822	-28.7776947	0.03543138877	1.0
14	0.9101490974	0.0004056713078	0.4003697634	-0.1032672822	-28.7776947	0.03543138877	1.0
15	0.9101490974	0.0004056713078	0.4003697634	-0.1032672822	-28.7776947	0.03543138877	1.0
[MundW_L]
13	0.673060894	-0.3618555963	0.3751283586	-179.8370972	-17.94885063	24.713974	1.0
14	0.673060894	-0.3618555963	0.3751283586	-179.8370972	-17.94885063	24.713974	1.0
15	0.673060894	-0.3618555963	0.3751283586	-179.8370972	-17.94885063	24.713974	1.0
[MundW_R]
13	0.6732419133	0.3627035022	0.3739836514	179.665329	-18.02427101	-24.69083595	1.0
14	0.6732419133	0.3627035022	0.3739836514	179.665329	-18.02427101	-24.69083595	1.0
15	0.6732419133	0.3627035022	0.3739836514	179.665329	-18.02427101	-24.69083595	1.0
[Augen_con]
13	1.807373166	-0.0001604110003	0.183581531	0.0982221961	157.1545258	0.02385941334	1.0
14	1.807373166	-0.0001604110003	0.183581531	0.0982221961	157.1545258	0.02385941334	1.0
15	1.807373166	-0.0001604110003	0.183581531	0.0982221961	157.1545258	0.02385941334	1.0
[IK_Aug_R]
13	0.3461295962	0.2943200469	-1.071020961e-07	-0.4194760025	-4.963055134	165.6946411	1.0
14	0.3461295962	0.2943200469	-1.071020961e-07	-0.4194760025	-4.963055134	165.6946411	1.0
15	0.3461295962	0.2943200469	-1.071020961e-07	-0.4194760025	-4.963055134	165.6946411	1.0
[IK_Aug_L]
13	0.3461301029	-0.2943200171	-1.967418939e-07	0.4194771945	-4.963055134	-165.6946411	1.0
14	0.3461301029	-0.2943200171	-1.967418939e-07	0.4194771945	-4.963055134	-165.6946411	1.0
15	0.3461301029	-0.2943200171	-1.967418939e-07	0.4194771945	-4.963055134	-165.6946411	1.0
[Aug_R]
13	1.035154939	0.2207805216	-0.09605780989	176.004776	-17.29167175	12.85548782	1.0
14	1.035154939	0.2207805216	-0.09605780989	176.004776	-17.29167175	12.85548782	1.0
15	1.035154939	0.2207805216	-0.09605780989	176.004776	-17.29167175	12.85548782	1.0
[aug_L]
13	1.03504467	-0.2215988934	-0.09535907209	-176.1891022	-17.33180046	-12.83102131	1.0
14	1.03504467	-0.2215988934	-0.09535907209	-176.1891022	-17.33180046	-12.83102131	1.0
15	1.03504467	-0.2215988934	-0.09535907209	-176.1891022	-17.33180046	-12.83102131	1.0
[Ohr_L]
13	0.6407766938	-0.3659991026	-0.6893324852	-24.34923935	53.07765961	-15.02013397	1.0
14	0.6407766938	-0.3659991026	-0.6893324852	-24.34923935	53.07765961	-15.02013397	1.0
15	0.6407766938	-0.3659991026	-0.6893324852	-24.34923935	53.07765961	-15.02013397	1.0
[Ohr_R]
13	0.640958488	0.36349985	-0.690484941	24.05785561	53.12415695	14.75856686	1.0
14	0.640958488	0.36349985	-0.690484941	24.05785561	53.12415695	14.75856686	1.0
15	0.640958488	0.36349985	-0.690484941	24.05785561	53.12415695	14.75856686	1.0
[Braun_O_L]
13	0.9801894426	-0.3706049323	-0.3292509615	-143.317215	-34.69636154	52.39493942	1.0
14	0.9801894426	-0.3706049323	-0.3292509615	-143.317215	-34.69636154	52.39493942	1.0
15	0.9801894426	-0.3706049323	-0.3292509615	-143.317215	-34.69636154	52.39493942	1.0
[Braun_O_R]
13	0.9803640842	0.3690741956	-0.3304226995	143.1826782	-34.83971405	-52.34676361	1.0
14	0.9803640842	0.3690741956	-0.3304226995	143.1826782	-34.83971405	-52.34676361	1.0
15	0.9803640842	0.3690741956	-0.3304226995	143.1826782	-34.83971405	-52.34676361	1.0
[aug_lied_O_L]
13	1.038882375	-0.3271433413	-0.1608109176	-175.8613434	-20.15596771	60.31667709	1.0
14	1.038882375	-0.3271433413	-0.1608109176	-175.8613434	-20.15596771	60.31667709	1.0
15	1.038882375	-0.3271433413	-0.1608109176	-175.8613434	-20.15596771	60.31667709	1.0
[aug_lied_O_R]
13	1.039044976	0.326115787	-0.1618431658	175.7657928	-20.31324005	-60.31218338	1.0
14	1.039044976	0.326115787	-0.1618431658	175.7657928	-20.31324005	-60.31218338	1.0
15	1.039044976	0.326115787	-0.1618431658	175.7657928	-20.31324005	-60.31218338	1.0
[aug_lied_U_L]
13	1.02191329	-0.3312865198	-0.1338392347	-159.8099365	-28.7482872	60.17462158	1.0
14	1.02191329	-0.3312865198	-0.1338392347	-159.8099365	-28.7482872	60.17462158	1.0
15	1.02191329	-0.3312865198	-0.1338392347	-159.8099365	-28.7482872	60.17462158	1.0
[aug_lied_U_R]
13	1.022078872	0.3303525448	-0.1348842829	159.7071381	-28.90532303	-60.15359116	1.0
14	1.022078872	0.3303525448	-0.1348842829	159.7071381	-28.90532303	-60.15359116	1.0
15	1.022078872	0.3303525448	-0.1348842829	159.7071381	-28.90532303	-60.15359116	1.0
[Bauch_003]
13	1.276869178	9.429641068e-08	-0.6079563498	-3.842957085e-06	-137.6799469	1.008550771e-05	1.0
14	1.276869178	9.429641068e-08	-0.6079563498	-3.842957085e-06	-137.6799469	1.008550771e-05	1.0
15	1.276869178	9.429641068e-08	-0.6079563498	-3.842957085e-06	-137.6799469	1.008550771e-05	1.0
[Schalterplatte_L]
13	0.8947014809	-0.3839259744	-0.004565399606	-1.686997771	68.6399231	-28.64458466	1.0
14	0.8932890892	-0.3843306303	0.005687536206	-0.4994575977	68.04207611	-27.33108139	1.0
15	0.8970336914	-0.3847352862	0.0170927234	0.3265914619	67.64814758	-26.38424301	1.0
[Oberarm_L]
13	1.418636799	1.443549991e-07	9.778887033e-08	-48.14539719	-56.23549271	56.51879501	1.0
14	1.418636799	1.443549991e-07	9.778887033e-08	-48.71821213	-56.62149811	57.30160141	1.0
15	1.418636799	1.443549991e-07	9.778887033e-08	-49.49981689	-57.13050842	58.37187576	1.0
[Unterarm_L]
13	2.028227329	8.847563748e-08	-3.725290298e-07	0.4656925797	39.2513237	0.3164721131	1.0
14	2.028227329	8.847563748e-08	-3.725290298e-07	0.5679283738	38.99230576	0.4423563778	1.0
15	2.028227329	8.847563748e-08	-3.725290298e-07	0.716103673	39.05835342	0.6201566458	1.0
[Vorderpfote_L]
13	1.705947638	1.746229827e-07	-5.704351125e-08	-4.929724216	80.03289795	-3.947306871	1.0
14	1.705947638	1.746229827e-07	-5.704351125e-08	-4.921740532	80.30973816	-3.940244913	1.0
15	1.705947638	1.746229827e-07	-5.704351125e-08	-4.809361458	80.54544067	-3.826852322	1.0
[Schalterplatte_R]
13	0.8932015896	0.3828880787	0.005745455623	86.90488434	79.79957581	119.502594	1.0
14	0.8948720098	0.3821008801	-0.005218105391	91.15581512	79.48379517	123.7592087	1.0
15	0.9000989199	0.3821424842	-0.0161816664	94.13816833	79.21424866	126.6861191	1.0
[Oberarm_R]
13	1.418636322	-1.210719205e-07	-7.450580597e-08	105.634697	-58.05991745	-125.7891388	1.0
14	1.418636322	-1.210719205e-07	-7.450580597e-08	104.1138763	-58.55630875	-123.7851028	1.0
15	1.418636322	-1.210719205e-07	-7.450580597e-08	101.6536102	-59.24314117	-120.6484375	1.0
[Unterarm_R]
13	2.028231859	1.676380634e-07	-3.608874977e-07	-6.460577011	63.44368744	-7.471915722	1.0
14	2.028231859	1.676380634e-07	-3.608874977e-07	-6.199141979	64.41906738	-7.000752449	1.0
15	2.028231859	1.676380634e-07	-3.608874977e-07	-5.820554733	65.47893524	-6.365848541	1.0
[Vorderpfote_R]
13	1.705937624	7.799826562e-08	1.461012289e-07	-7.895735741	-14.30579853	7.003730297	1.0
14	1.705937624	7.799826562e-08	1.461012289e-07	-8.040629387	-15.38574886	7.298794746	1.0
15	1.705937624	7.799826562e-08	1.461012289e-07	-7.987598896	-15.32997322	7.548007011	1.0
[Schwanz]
13	-0.08847683668	-1.382431947e-08	0.05883389711	-2.220226997e-05	-120.9460068	2.181978562e-05	1.0
14	-0.08847683668	-1.382431947e-08	0.05883389711	-2.220226997e-05	-120.9460068	2.181978562e-05	1.0
15	-0.09073614329	-1.382431947e-08	0.06029978767	-2.220226997e-05	-120.6918335	2.181978562e-05	1.0
[Schwanz_001]
13	0.9104328156	6.868503988e-08	7.788912626e-08	-2.408194405e-06	17.2572155	-5.75290926e-07	1.0
14	0.9104328156	6.868503988e-08	7.788912626e-08	-2.408194405e-06	17.2572155	-5.75290926e-07	1.0
15	0.9104328156	6.868503988e-08	7.788912626e-08	-2.408194405e-06	16.91098785	-5.75290926e-07	1.0
[Schwanz_002]
13	0.7855660319	5.704351125e-08	-1.185253495e-07	8.174235973e-07	-2.377253532	-1.362372615e-07	1.0
14	0.7855660319	5.704351125e-08	-1.185253495e-07	8.174235973e-07	-2.377254963	-1.362372615e-07	1.0
15	0.7855660319	5.704351125e-08	-1.185253495e-07	8.174235973e-07	-2.627907991	-1.362372615e-07	1.0
[Schwanz_003]
13	0.8350355029	6.286426668e-08	-2.072192729e-07	-2.187832479e-06	-5.271339893	1.867661581e-07	1.0
14	0.8350355029	6.286426668e-08	-2.072192729e-07	-2.187832479e-06	-5.271340847	1.867661581e-07	1.0
15	0.8350355029	6.286426668e-08	-2.072192729e-07	-2.187832479e-06	-5.138655186	1.867661581e-07	1.0
[Oberschenkel_L]
13	0.6990376115	-0.5836999416	-0.1164270937	-166.0582428	-123.2810822	171.7149353	1.0
14	0.6997005939	-0.5836999416	-0.1166247129	-166.6612701	-125.7964783	172.443573	1.0
15	0.6953758597	-0.5836999416	-0.1108017489	-167.0859528	-127.8518295	172.9720459	1.0
[Unterschenkel_L]
13	1.686439037	6.984918599e-08	-6.053597446e-08	-51.94137955	-72.55266571	61.13605881	1.0
14	1.686439037	6.984918599e-08	-6.053597446e-08	-54.1630249	-72.68031311	63.78330612	1.0
15	1.686439037	6.984918599e-08	-6.053597446e-08	-54.14611816	-72.34540558	64.13442993	1.0
[Pfote1_L]
13	1.190900326	6.519258022e-08	1.396983862e-07	2.106496811	35.13422775	-6.192728519	1.0
14	1.190900326	6.519258022e-08	1.396983862e-07	2.07284236	35.69931793	-6.250903606	1.0
15	1.190900326	6.519258022e-08	1.396983862e-07	2.042904139	36.18856049	-6.301970959	1.0
[Pfote2_L]
13	0.9876257777	7.450580597e-08	-5.587935092e-08	-80.89517975	84.88827515	-87.13668823	1.0
14	0.9876257777	7.450580597e-08	-5.587935092e-08	-75.95633698	84.63188934	-82.3812027	1.0
15	0.9876257777	7.450580597e-08	-5.587935092e-08	-69.21154022	84.34927368	-75.79162598	1.0
[Oberschenkel_R]
13	0.5498181581	0.5837000012	0.1138203666	-22.63612366	-73.13192749	17.77664185	1.0
14	0.5372151136	0.5837000012	0.1161669567	-24.83636665	-74.93153381	20.06433868	1.0
15	0.525658071	0.5837000012	0.1185135543	-27.30924225	-76.5448761	22.61641502	1.0
[Unterschenkel_R]
13	1.68644917	1.164153218e-07	2.793967901e-08	12.68281174	-36.18289185	-20.93842316	1.0
14	1.68644917	1.164153218e-07	2.793967901e-08	12.20909214	-35.39864349	-20.12552071	1.0
15	1.68644917	1.164153218e-07	2.793967901e-08	11.94929504	-35.26138687	-19.51451111	1.0
[Pfote1_R]
13	1.190900087	1.856824383e-07	4.190951941e-08	-2.222974539	33.32828522	5.985301495	1.0
14	1.190900087	1.856824383e-07	4.190951941e-08	-2.207779646	32.97723007	6.013063908	1.0
15	1.190900087	1.856824383e-07	4.190951941e-08	-2.194974184	32.67648315	6.036669254	1.0
[Pfote2_R]
13	0.9876258373	6.984919754e-09	6.635672634e-08	78.71336365	88.38605499	84.47873688	1.0
14	0.9876258373	6.984919754e-09	6.635672634e-08	110.0243988	88.33695984	115.5602798	1.0
15	0.9876258373	6.984919754e-09	6.635672634e-08	128.0482635	88.0032959	133.3631287	1.0
[EndOfFile]
